<svg width="246" height="114" viewBox="0 0 246 114" fill="none" xmlns="http://www.w3.org/2000/svg">
<path d="M14.2539 27.631V35.629H14.6129C15.3279 34.516 16.2629 33.381 17.4179 32.227C18.5709 31.073 19.9849 30.039 21.6569 29.122C23.3279 28.21 25.2179 27.452 27.3279 26.854C29.4349 26.258 31.8049 25.958 34.4309 25.958C38.4909 25.958 42.2309 26.735 45.6539 28.286C49.0759 29.841 52.0219 31.97 54.4899 34.675C56.9559 37.382 58.8659 40.566 60.2199 44.226C61.5729 47.888 62.2499 51.828 62.2499 56.046C62.2499 60.264 61.5929 64.224 60.2789 67.925C58.9669 71.626 57.0939 74.849 54.6679 77.595C52.2389 80.341 49.2959 82.533 45.8329 84.161C42.3699 85.792 38.4489 86.608 34.0729 86.608C30.0129 86.608 26.2919 85.772 22.9099 84.102C19.5249 82.43 16.9199 80.163 15.0899 77.295H14.8519V113.59H0.524902V27.631H14.2539ZM47.6839 56.045C47.6839 53.816 47.3449 51.607 46.6689 49.418C45.9909 47.23 44.9769 45.26 43.6239 43.508C42.2699 41.76 40.5599 40.346 38.4899 39.27C36.4199 38.196 33.9929 37.659 31.2079 37.659C28.5809 37.659 26.2319 38.216 24.1639 39.331C22.0939 40.446 20.3219 41.88 18.8509 43.628C17.3769 45.38 16.2639 47.37 15.5079 49.599C14.7499 51.828 14.3739 54.058 14.3739 56.285C14.3739 58.514 14.7499 60.723 15.5079 62.91C16.2639 65.101 17.3769 67.07 18.8509 68.822C20.3229 70.572 22.0939 71.986 24.1639 73.058C26.2319 74.134 28.5809 74.669 31.2079 74.669C33.9929 74.669 36.4199 74.114 38.4899 72.999C40.5589 71.884 42.2699 70.452 43.6239 68.7C44.9769 66.95 45.9909 64.96 46.6689 62.731C47.3449 60.502 47.6839 58.273 47.6839 56.045Z" fill="#F9CB28"/>
<path d="M187.333 24.8931V88.3991C187.333 91.8211 187.054 95.0651 186.497 98.1291C185.938 101.193 184.886 103.859 183.333 106.129C181.782 108.399 179.671 110.207 177.005 111.561C174.337 112.915 170.857 113.59 166.558 113.59C165.365 113.59 164.171 113.51 162.976 113.352C161.783 113.192 160.828 113.032 160.111 112.873L161.306 100.695C161.943 100.855 162.618 100.974 163.335 101.054C164.052 101.132 164.687 101.173 165.245 101.173C166.915 101.173 168.268 100.855 169.304 100.218C170.337 99.5791 171.134 98.7041 171.693 97.5911C172.248 96.4761 172.607 95.1831 172.767 93.7101C172.925 92.2371 173.005 90.6671 173.005 88.9951V24.8931H187.333Z" fill="#F9CB28"/>
<path d="M236.163 42.912C234.888 41.24 233.138 39.789 230.909 38.555C228.68 37.321 226.253 36.703 223.626 36.703C221.317 36.703 219.21 37.182 217.3 38.137C215.388 39.09 214.435 40.684 214.435 42.912C214.435 45.14 215.488 46.715 217.597 47.627C219.706 48.543 222.792 49.479 226.851 50.434C228.999 50.913 231.167 51.549 233.357 52.344C235.547 53.139 237.537 54.194 239.328 55.508C241.117 56.82 242.57 58.453 243.685 60.403C244.798 62.354 245.357 64.721 245.357 67.507C245.357 71.011 244.699 73.976 243.386 76.402C242.074 78.83 240.322 80.8 238.132 82.312C235.942 83.824 233.396 84.919 230.491 85.595C227.585 86.271 224.583 86.609 221.477 86.609C217.018 86.609 212.682 85.793 208.463 84.162C204.244 82.533 200.742 80.203 197.957 77.18L207.389 68.344C208.981 70.414 211.049 72.125 213.598 73.477C216.145 74.831 218.969 75.506 222.075 75.506C223.108 75.506 224.163 75.389 225.239 75.149C226.313 74.911 227.307 74.534 228.223 74.016C229.137 73.498 229.873 72.803 230.432 71.926C230.987 71.049 231.266 69.977 231.266 68.701C231.266 66.312 230.172 64.603 227.985 63.568C225.794 62.533 222.51 61.498 218.135 60.464C215.985 59.985 213.895 59.37 211.865 58.612C209.836 57.856 208.025 56.862 206.433 55.628C204.839 54.394 203.568 52.864 202.613 51.03C201.658 49.2 201.179 46.932 201.179 44.225C201.179 41.041 201.835 38.297 203.15 35.989C204.462 33.678 206.195 31.792 208.343 30.315C210.491 28.844 212.919 27.749 215.626 27.034C218.331 26.317 221.118 25.958 223.983 25.958C228.12 25.958 232.161 26.675 236.1 28.106C240.039 29.54 243.162 31.731 245.473 34.674L236.163 42.912Z" fill="#F9CB28"/>
<path d="M151.559 72.816L160.092 70.24L161.768 75.396L153.27 78.294L158.545 85.774L154.098 89L148.545 81.652L143.137 88.806L138.818 85.517L144.093 78.294L135.53 75.204L137.207 70.044L145.806 72.815V63.92H151.56L151.559 72.816Z" fill="#F9CB28"/>
<path d="M122.086 45.836C120.613 42.535 118.565 39.748 115.938 37.479C113.312 35.211 110.227 33.479 106.686 32.286C103.143 31.093 99.3018 30.495 95.1648 30.495C93.6518 30.495 91.9609 30.577 90.0909 30.733C88.2199 30.895 86.6088 31.172 85.2558 31.571L86.0909 13.303H120.595V0.410034H72.4809L71.0478 46.611C72.3188 45.976 73.7728 45.379 75.4048 44.82C77.0358 44.265 78.7068 43.767 80.4188 43.33C82.1298 42.892 83.8818 42.555 85.6728 42.314C87.4638 42.076 89.1538 41.957 90.7468 41.957C93.0538 41.957 95.3228 42.215 97.5518 42.732C99.7798 43.25 101.79 44.166 103.581 45.478C105.372 46.79 106.823 48.523 107.939 50.671C109.052 52.819 109.61 55.526 109.61 58.79C109.61 61.337 109.192 63.626 108.356 65.655C107.521 67.682 106.386 69.376 104.955 70.727C103.521 72.082 101.851 73.116 99.9389 73.831C98.0289 74.55 95.9998 74.907 93.8498 74.907C90.0308 74.907 86.7258 73.891 83.9408 71.862C81.1538 69.833 79.1658 67.147 77.9708 63.803L77.8118 63.862L67.4438 73.577C69.5408 76.997 72.2438 79.858 75.5838 82.13C80.4378 85.431 86.4068 87.085 93.4928 87.085C97.7108 87.085 101.69 86.407 105.431 85.056C109.171 83.704 112.435 81.753 115.221 79.204C118.006 76.659 120.215 73.534 121.848 69.833C123.478 66.132 124.294 61.935 124.294 57.237C124.295 52.939 123.559 49.141 122.086 45.836Z" fill="#F9CB28"/>
</svg>
